<svg xmlns="http://www.w3.org/2000/svg" viewBox="0 0 512 512">
  <defs>
    <linearGradient id="page" x1="75" y1="32" x2="443" y2="464" gradientUnits="userSpaceOnUse">
      <stop stop-color="#fffaf6"/>
      <stop offset=".48" stop-color="#ffd4d9"/>
      <stop offset="1" stop-color="#ff8fb4"/>
    </linearGradient>
    <linearGradient id="bowl" x1="186" y1="270" x2="384" y2="419" gradientUnits="userSpaceOnUse">
      <stop stop-color="#ffe66d"/>
      <stop offset="1" stop-color="#ff9a3d"/>
    </linearGradient>
    <filter id="shadow" x="-30%" y="-30%" width="160%" height="160%">
      <feDropShadow dx="0" dy="18" stdDeviation="18" flood-color="#171124" flood-opacity=".25"/>
    </filter>
  </defs>
  <rect width="512" height="512" rx="104" fill="#171124"/>
  <rect x="101" y="21" width="368" height="470" rx="48" fill="url(#page)" filter="url(#shadow)"/>
  <path d="M122 118c-62 0-62-88 0-88h58" fill="none" stroke="#8cff63" stroke-width="32" stroke-linecap="round"/>
  <path d="M122 203c-62 0-62-88 0-88h58" fill="none" stroke="#8cff63" stroke-width="32" stroke-linecap="round"/>
  <path d="M122 288c-62 0-62-88 0-88h58" fill="none" stroke="#8cff63" stroke-width="32" stroke-linecap="round"/>
  <path d="M122 373c-62 0-62-88 0-88h58" fill="none" stroke="#8cff63" stroke-width="32" stroke-linecap="round"/>
  <text x="209" y="166" font-family="Arial Black, Impact, sans-serif" font-size="64" fill="#ff3d9a">RECIPE</text>
  <path d="M202 288h202v29c0 64-43 104-101 104s-101-40-101-104z" fill="url(#bowl)"/>
  <path d="M191 275h224v35c-23 11-37-13-58-2-19 11-35 11-54 0-21-11-35 13-58 2-20-11-32 3-54-5z" fill="#ffe66d"/>
  <path d="M290 263c-38-25-35-78 0-93 33 21 33 72 0 93z" fill="#70687f"/>
  <path d="M284 178c-11 32-11 54 0 80M306 181c10 30 10 52 0 77" fill="none" stroke="#ffd4d9" stroke-width="9" stroke-linecap="round"/>
  <path d="M336 252v-84c0-19 45-19 45 0v84" fill="#c86650"/>
  <path d="M386 246v-66h69v66c0 25-69 25-69 0z" fill="#53b7ff"/>
  <path d="M407 194v38M426 194v38M445 194v38" stroke="#ffd4d9" stroke-width="12" stroke-linecap="round"/>
  <path d="M213 448h96M336 448h67M213 474h162" stroke="#fff" stroke-width="18" stroke-linecap="round"/>
</svg>
